# xmcd
#
# Track frame offsets: 
#        150
#        13249
#        29796
#        46802
#        59791
#        76219
#        90681
#        109298
#        129038
#        145998
#        165365
#        184779
#        202524
#        218315
#        234664
#
# Disc length: 3375 seconds
#
# Revision: 0
# Processed by: cddbd v1.5.2PL0 Copyright (c) Steve Scherf et al.
# Submitted via: ExactAudioCopy v1.1
#
DISCID=c30d2d0f
DTITLE=Pereza - Esencial Pereza
DYEAR=2012
DGENRE=Pop
TTITLE0=Pienso en aquella tarde
TTITLE1=Madrid
TTITLE2=Por mi tripa
TTITLE3=Animales
TTITLE4=Princesas
TTITLE5=Lady Madrid
TTITLE6=Margot
TTITLE7=Todo
TTITLE8=Amelie
TTITLE9=4 y 26
TTITLE10=Aproximación
TTITLE11=Voy a comerte
TTITLE12=Estrella Polar
TTITLE13=Beatles
TTITLE14=Windsor
EXTD=
EXTT0=
EXTT1=
EXTT2=
EXTT3=
EXTT4=
EXTT5=
EXTT6=
EXTT7=
EXTT8=
EXTT9=
EXTT10=
EXTT11=
EXTT12=
EXTT13=
EXTT14=
PLAYORDER=
